<svg xmlns="http://www.w3.org/2000/svg" width="386.286" height="386.286" viewBox="0 0 362.143 362.143">
  <circle cx="348.722" cy="260.251" r="181.071" fill="#ababab" transform="translate(-167.65 -79.18)"/>
  <g transform="translate(-167.65 -79.18)">
    <path d="M216.85 217.41l100.445-80.59c14.247-10.53 49.324-19.463 72.253 8.934 25.403 31.46 8.71 62.243-6.57 75.045l-99.568 80.005c-22.092 17.963-55.172 15.888-76.057-9.95-19.442-24.05-10.736-56.514 9.498-73.444zm100.153 80.675l100.445-80.59c14.247-10.53 49.324-19.463 72.253 8.934 25.403 31.46 8.71 62.243-6.57 75.045l-99.568 80.005c-22.092 17.963-55.172 15.888-76.057-9.95-19.443-24.05-10.736-56.514 9.497-73.444z" fill="#dcdcdc" fill-rule="evenodd"/>
    <circle cx="347.894" cy="180.01" r="39.273" fill="#b5aafa"/>
    <circle r="39.273" cy="258.263" cx="249.493" fill="#b5aafa"/>
    <circle r="39.273" cy="260.307" cx="449.507" fill="#6c46e2"/>
    <circle cx="350.23" cy="339.145" r="39.273" fill="#6c46e2"/>
  </g>
</svg>
