<?xml version="1.0" encoding="UTF-8" standalone="no"?>
<!-- Created with Inkscape (http://www.inkscape.org/) -->

<svg
   xmlns:dc="http://purl.org/dc/elements/1.1/"
   xmlns:cc="http://creativecommons.org/ns#"
   xmlns:rdf="http://www.w3.org/1999/02/22-rdf-syntax-ns#"
   xmlns:svg="http://www.w3.org/2000/svg"
   xmlns="http://www.w3.org/2000/svg"
   xmlns:sodipodi="http://sodipodi.sourceforge.net/DTD/sodipodi-0.dtd"
   xmlns:inkscape="http://www.inkscape.org/namespaces/inkscape"
   width="122.00166mm"
   height="29mm"
   viewBox="0 0 432.28936 102.7559"
   id="svg2"
   version="1.1"
   inkscape:version="0.91 r13725"
   sodipodi:docname="super-controls.svg">
  <defs
     id="defs4" />
  <sodipodi:namedview
     id="base"
     pagecolor="#ffffff"
     bordercolor="#666666"
     borderopacity="1.0"
     inkscape:pageopacity="0.0"
     inkscape:pageshadow="2"
     inkscape:zoom="1.979899"
     inkscape:cx="219.45528"
     inkscape:cy="5.7903202"
     inkscape:document-units="px"
     inkscape:current-layer="layer1"
     showgrid="false"
     fit-margin-top="0"
     fit-margin-left="0"
     fit-margin-right="0"
     fit-margin-bottom="0"
     inkscape:window-width="1680"
     inkscape:window-height="1001"
     inkscape:window-x="0"
     inkscape:window-y="1"
     inkscape:window-maximized="1" />
  <metadata
     id="metadata7">
    <rdf:RDF>
      <cc:Work
         rdf:about="">
        <dc:format>image/svg+xml</dc:format>
        <dc:type
           rdf:resource="http://purl.org/dc/dcmitype/StillImage" />
        <dc:title></dc:title>
      </cc:Work>
    </rdf:RDF>
  </metadata>
  <g
     inkscape:label="Layer 1"
     inkscape:groupmode="layer"
     id="layer1"
     transform="translate(-2.8637501,2.1379087)">
    <text
       xml:space="preserve"
       style="font-style:normal;font-weight:normal;font-size:40px;line-height:125%;font-family:sans-serif;letter-spacing:0px;word-spacing:0px;fill:#000000;fill-opacity:1;stroke:none;stroke-width:1px;stroke-linecap:butt;stroke-linejoin:miter;stroke-opacity:1"
       x="488.91382"
       y="-47.693916"
       id="text3456"
       sodipodi:linespacing="125%"><tspan
         sodipodi:role="line"
         id="tspan3458"
         x="488.91382"
         y="-47.693916" /></text>
    <g
       id="g4266"
       transform="matrix(1.1285105,0,0,1.1285105,-24.87733,-22.050215)">
      <text
         transform="scale(1.0369368,0.96437893)"
         sodipodi:linespacing="125%"
         id="text3336"
         y="86.072937"
         x="22.048994"
         style="font-style:italic;font-variant:normal;font-weight:normal;font-stretch:normal;font-size:167.53749084px;line-height:125%;font-family:SNES;-inkscape-font-specification:'SNES, Italic';text-align:start;letter-spacing:0px;word-spacing:0px;writing-mode:lr-tb;text-anchor:start;fill:#fc0c18;fill-opacity:1;stroke:none;stroke-width:1px;stroke-linecap:butt;stroke-linejoin:miter;stroke-opacity:1"
         xml:space="preserve"><tspan
           style="font-style:italic;font-variant:normal;font-weight:normal;font-stretch:normal;font-size:90px;line-height:125%;font-family:SNES;-inkscape-font-specification:'SNES, Italic';text-align:start;writing-mode:lr-tb;text-anchor:start;fill:#fc0c18;fill-opacity:1"
           y="86.072937"
           x="22.048994"
           id="tspan3338"
           sodipodi:role="line">super controls</tspan></text>
      <path
         id="rect3460"
         d="m 24.582031,87.009766 0,21.689454 374.999999,0 0,-21.689454 -374.999999,0 z m 6.347657,3.007812 3.939453,0 -0.283203,1.640625 -2.1875,0 -0.820313,4.585938 2.177734,0 -0.304687,1.61914 -2.166016,0 -1.195312,6.673829 -1.791016,0 2.63086,-14.519532 z m 17.857421,0 2.458985,0 c 0.350986,0 0.652603,0.128276 0.902344,0.384766 0.25649,0.25649 0.384765,0.567155 0.384765,0.93164 0,0.101246 -0.008,0.178424 -0.02148,0.232422 l -2.083985,11.664064 c -0.07425,0.37123 -0.264621,0.6819 -0.568359,0.93164 -0.303738,0.24974 -0.646515,0.375 -1.03125,0.375 l -2.419922,0 c -0.357736,0 -0.662369,-0.12828 -0.912109,-0.38477 -0.249741,-0.25649 -0.375,-0.56414 -0.375,-0.92187 l 0,-0.25391 2.085937,-11.642576 c 0.07425,-0.377985 0.259652,-0.691666 0.556641,-0.941406 0.303738,-0.24974 0.645452,-0.375 1.023437,-0.375 z m 17.136719,0 3.898438,0 c 0.350986,0 0.653666,0.128276 0.910156,0.384766 0.25649,0.24974 0.39275,0.557389 0.40625,0.921875 0,0.03375 -0.01402,0.113942 -0.04102,0.242187 l -0.810547,4.576172 c -0.128245,0.634475 -0.502071,1.039351 -1.123047,1.214844 0.236241,0.08775 0.415615,0.244055 0.53711,0.466797 0.0945,0.175493 0.140625,0.369946 0.140625,0.585937 0,0.04725 -0.003,0.09835 -0.0098,0.152344 0,0.101246 -0.003,0.178424 -0.0098,0.232422 l -1.052735,5.742188 -1.783203,0 1.064453,-5.94336 0,-0.05078 c 0,-0.114746 -0.04205,-0.213925 -0.123047,-0.294922 -0.081,-0.081 -0.178223,-0.121094 -0.292968,-0.121094 l -1.40625,0 -1.134766,6.410156 -1.771484,0 2.601562,-14.519531 z m 18.402344,0 2.197266,0 -0.222657,10.458982 3.503907,-10.458982 2.408203,0 -2.63086,14.519532 -1.751953,0 1.609375,-9.062501 -2.945312,9.062501 -1.539063,0 0.111328,-9.173829 -1.630859,9.173829 -1.751953,0 2.642578,-14.519532 z m 36.533208,0 2.45898,0 c 0.35099,0 0.6526,0.128276 0.90234,0.384766 0.25649,0.25649 0.38477,0.567155 0.38477,0.93164 0,0.101246 -0.008,0.178424 -0.0215,0.232422 l -0.64648,3.625 -1.68164,0 0.54687,-3.058594 0,-0.06055 c 0,-0.121496 -0.0401,-0.221738 -0.12109,-0.302735 -0.081,-0.07425 -0.18319,-0.111328 -0.30469,-0.111328 l -0.9414,0 c -0.14175,0 -0.27304,0.04613 -0.39453,0.140625 -0.11475,0.08775 -0.1859,0.19899 -0.2129,0.333984 l -1.85351,10.296882 0,0.0508 c 0,0.11474 0.0421,0.21694 0.12305,0.30469 0.081,0.0877 0.18124,0.13086 0.30273,0.13086 l 0.93164,0 c 0.33074,0 0.53619,-0.16838 0.61719,-0.50586 l 0.54687,-3.046883 1.69141,0 -0.68945,3.867193 c -0.0743,0.37123 -0.26267,0.6819 -0.56641,0.93164 -0.30374,0.24974 -0.64847,0.375 -1.0332,0.375 l -2.41992,0 c -0.35774,0 -0.66042,-0.12828 -0.91016,-0.38477 -0.24974,-0.25649 -0.375,-0.56414 -0.375,-0.92187 l 0,-0.25391 2.08594,-11.64258 c 0.0742,-0.377985 0.25965,-0.691666 0.55664,-0.941406 0.30374,-0.24974 0.64545,-0.375 1.02344,-0.375 z m 18.19921,0 2.46094,0 c 0.35099,0 0.65065,0.128276 0.90039,0.384766 0.25649,0.25649 0.38477,0.567155 0.38477,0.93164 0,0.101246 -0.006,0.178424 -0.0195,0.232422 l -2.08594,11.664064 c -0.0743,0.37123 -0.26267,0.6819 -0.56641,0.93164 -0.30374,0.24974 -0.64847,0.375 -1.0332,0.375 l -2.41992,0 c -0.35774,0 -0.66237,-0.12828 -0.91211,-0.38477 -0.24974,-0.25649 -0.37305,-0.56414 -0.37305,-0.92187 l 0,-0.25391 2.08399,-11.642576 c 0.0742,-0.377985 0.2616,-0.691666 0.55859,-0.941406 0.30374,-0.24974 0.6435,-0.375 1.02148,-0.375 z m 17.17774,0 2.19726,0 -0.22265,10.458982 3.5039,-10.458982 2.40821,0 -2.63086,14.519532 -1.75196,0 1.60938,-9.062501 -2.94727,9.062501 -1.53711,0 0.11133,-9.173829 -1.63086,9.173829 -1.75195,0 2.64258,-14.519532 z m 20.7832,0 3.81641,0 c 0.35773,0 0.66041,0.128276 0.91015,0.384766 0.25649,0.25649 0.38477,0.567155 0.38477,0.93164 0,0.04725 -0.009,0.124426 -0.0293,0.232422 l -0.93164,5.142578 c -0.0675,0.377986 -0.24988,0.693619 -0.54687,0.94336 -0.29699,0.24974 -0.63871,0.373047 -1.02344,0.373047 l -2.27734,0 -1.1836,6.511719 -1.75195,0 2.63281,-14.519532 z m 19.27344,0 2.45898,0 c 0.35099,0 0.65261,0.128276 0.90235,0.384766 0.25649,0.25649 0.38476,0.567155 0.38476,0.93164 0,0.101246 -0.008,0.178424 -0.0215,0.232422 l -2.08594,11.664064 c -0.0742,0.37123 -0.26267,0.6819 -0.56641,0.93164 -0.30373,0.24974 -0.64846,0.375 -1.0332,0.375 l -2.41992,0 c -0.35774,0 -0.66042,-0.12828 -0.91016,-0.38477 -0.24974,-0.25649 -0.375,-0.56414 -0.375,-0.92187 l 0,-0.25391 2.08594,-11.642576 c 0.0743,-0.377985 0.25965,-0.691666 0.55664,-0.941406 0.30374,-0.24974 0.64545,-0.375 1.02344,-0.375 z m 17.16601,0 1.75196,0 c 0.50623,5.237797 0.76881,8.932771 0.78906,11.085942 0.0675,-1.90343 0.59462,-5.598405 1.58008,-11.085942 l 1.75195,0 -2.63281,14.519532 -1.75195,0 c -0.49948,-5.217548 -0.75905,-8.826297 -0.7793,-10.824219 -0.0675,1.673935 -0.59266,5.282683 -1.57813,10.824219 l -1.76172,0 2.63086,-14.519532 z m 18.76758,0 3.93946,0 -0.28516,1.640625 -2.18555,0 -0.82031,4.585938 2.17578,0 -0.30273,1.61914 -2.16602,0 -0.90234,5.052739 2.14648,0 -0.29297,1.62109 -3.93945,0 2.63281,-14.519532 z m 16.82422,0 1.75,0 c 0.50623,5.237797 0.77077,8.932771 0.79102,11.085942 0.0675,-1.90343 0.59266,-5.598405 1.57812,-11.085942 l 1.75196,0 -2.63282,14.519532 -1.75,0 c -0.49948,-5.217548 -0.75905,-8.826297 -0.77929,-10.824219 -0.0675,1.673935 -0.59462,5.282683 -1.58008,10.824219 l -1.76172,0 2.63281,-14.519532 z m 18.44336,0 4.2207,0 -0.3125,1.640625 -1.20507,0 -2.33008,12.878907 -1.77149,0 2.34961,-12.878907 -1.24609,0 0.29492,-1.640625 z m 32.54297,0 2.42969,0 c 0.35098,0 0.65366,0.128276 0.91015,0.384766 0.26324,0.25649 0.39453,0.567155 0.39453,0.93164 0,0.101246 -0.006,0.178424 -0.0195,0.232422 l -0.63867,3.574219 -1.69922,0 0.53516,-3.007813 c 0.0135,-0.02025 0.0215,-0.0403 0.0215,-0.06055 0,-0.114746 -0.0451,-0.214988 -0.13281,-0.302735 -0.0878,-0.07425 -0.18799,-0.111328 -0.30273,-0.111328 l -0.93164,0 c -0.1485,0 -0.27979,0.04613 -0.39454,0.140625 -0.11474,0.08775 -0.18589,0.19899 -0.21289,0.333984 l -0.29297,1.611329 c -0.0202,0.121495 -0.0312,0.244801 -0.0312,0.373047 0,0.485981 0.15435,0.979035 0.46484,1.478515 1.11371,1.910176 1.718,2.976478 1.8125,3.199219 0.17549,0.323987 0.26367,0.674749 0.26367,1.052734 0,0.188998 -0.0201,0.382388 -0.0606,0.578128 l -0.51562,2.80469 c -0.081,0.37123 -0.2664,0.6819 -0.55664,0.93164 -0.30374,0.24974 -0.65149,0.375 -1.04297,0.375 l -2.41992,0 c -0.35774,0 -0.65936,-0.12828 -0.90235,-0.38477 -0.23624,-0.24974 -0.35351,-0.55739 -0.35351,-0.92187 l 0,-0.23242 0.63672,-3.685554 1.68164,0 -0.54688,3.117194 0,0.0508 c 0,0.11474 0.0401,0.21694 0.1211,0.30469 0.081,0.0877 0.18017,0.13086 0.29492,0.13086 l 0.93164,0 c 0.14849,0 0.2828,-0.0461 0.4043,-0.14063 0.12149,-0.10125 0.19867,-0.22349 0.23242,-0.36523 l 0.36523,-2.04493 c 0.0135,-0.0607 0.0195,-0.12586 0.0195,-0.19335 0,-0.276748 -0.11727,-0.624494 -0.35351,-1.042978 -0.108,-0.195742 -0.39861,-0.734925 -0.8711,-1.61914 -0.52648,-0.992212 -0.83111,-1.56546 -0.91211,-1.720704 -0.25649,-0.50623 -0.38476,-1.005316 -0.38476,-1.498046 0,-0.148495 0.011,-0.298772 0.0312,-0.447266 L 298.44723,91.334 c 0.0742,-0.377985 0.26266,-0.691666 0.5664,-0.941406 0.29699,-0.24974 0.6387,-0.375 1.02344,-0.375 z m 16.87305,0 1.74218,0 -0.0215,6.449219 2.60352,-6.449219 1.84179,0 -4,8.878906 -1.02148,5.640626 -1.75196,0 1.02344,-5.609376 -0.41601,-8.910156 z m 19.5664,0 2.43164,0 c 0.35099,0 0.65367,0.128276 0.91016,0.384766 0.26324,0.25649 0.39453,0.567155 0.39453,0.93164 0,0.101246 -0.006,0.178424 -0.0195,0.232422 l -0.63867,3.574219 -1.70117,0 0.5371,-3.007813 c 0.0135,-0.02025 0.0215,-0.0403 0.0215,-0.06055 0,-0.114746 -0.0451,-0.214988 -0.13281,-0.302735 -0.0877,-0.07425 -0.18799,-0.111328 -0.30274,-0.111328 l -0.93164,0 c -0.14849,0 -0.27978,0.04613 -0.39453,0.140625 -0.11474,0.08775 -0.18589,0.19899 -0.21289,0.333984 l -0.29492,1.611329 c -0.0203,0.121495 -0.0293,0.244801 -0.0293,0.373047 0,0.485981 0.15436,0.979035 0.46484,1.478515 1.11371,1.910176 1.71801,2.976478 1.8125,3.199219 0.1755,0.323987 0.26368,0.674749 0.26368,1.052734 0,0.188998 -0.02,0.382388 -0.0605,0.578128 l -0.51758,2.80469 c -0.081,0.37123 -0.2664,0.6819 -0.55664,0.93164 -0.30374,0.24974 -0.65148,0.375 -1.04297,0.375 l -2.41992,0 c -0.35774,0 -0.6574,-0.12828 -0.90039,-0.38477 -0.23624,-0.24974 -0.35352,-0.55739 -0.35352,-0.92187 l 0,-0.23242 0.63672,-3.685554 1.68164,0 -0.54687,3.117194 0,0.0508 c 0,0.11474 0.0401,0.21694 0.12109,0.30469 0.081,0.0877 0.17823,0.13086 0.29297,0.13086 l 0.93164,0 c 0.1485,0 0.28476,-0.0461 0.40625,-0.14063 0.1215,-0.10125 0.19868,-0.22349 0.23242,-0.36523 l 0.36524,-2.04493 c 0.0135,-0.0607 0.0195,-0.12586 0.0195,-0.19335 0,-0.276748 -0.11923,-0.624494 -0.35547,-1.042978 -0.108,-0.195742 -0.39666,-0.734925 -0.86914,-1.61914 -0.52648,-0.992212 -0.83111,-1.56546 -0.91211,-1.720704 -0.25649,-0.50623 -0.38476,-1.005316 -0.38476,-1.498046 0,-0.148495 0.011,-0.298772 0.0312,-0.447266 L 334.88869,91.334 c 0.0743,-0.377985 0.26267,-0.691666 0.56641,-0.941406 0.29699,-0.24974 0.63675,-0.375 1.02148,-0.375 z m 16.79297,0 4.22266,0 -0.31446,1.640625 -1.20507,0 -2.32813,12.878907 -1.77148,0 2.34961,-12.878907 -1.2461,0 0.29297,-1.640625 z m 16.7832,0 3.93946,0 -0.28321,1.640625 -2.1875,0 -0.82031,4.585938 2.17578,0 -0.30273,1.61914 -2.16602,0 -0.90234,5.052739 2.14648,0 -0.29296,1.62109 -3.93946,0 2.63281,-14.519532 z m 16.83399,0 2.19726,0 -0.22265,10.458982 3.50195,-10.458982 2.41016,0 -2.63282,14.519532 -1.75,0 1.60938,-9.062501 -2.94727,9.062501 -1.53906,0 0.11133,-9.173829 -1.62891,9.173829 -1.75195,0 2.64258,-14.519532 z M 49.363281,91.658203 c -0.141744,0 -0.273036,0.04613 -0.394531,0.140625 -0.114746,0.08775 -0.185892,0.19899 -0.212891,0.333984 l -1.851562,10.296878 0,0.0508 c 0,0.11474 0.0401,0.21694 0.121094,0.30469 0.081,0.0877 0.181239,0.13086 0.302734,0.13086 l 0.931641,0 c 0.330737,0 0.53619,-0.16838 0.617187,-0.50586 l 1.853516,-10.277348 0,-0.06055 c 0,-0.121496 -0.0401,-0.221738 -0.121094,-0.302735 -0.081,-0.07425 -0.183192,-0.111328 -0.304687,-0.111328 l -0.941407,0 z m 18.039063,0 -0.861328,4.738281 1.408203,0 c 0.148494,0 0.279785,-0.0511 0.394531,-0.152343 0.114746,-0.0945 0.182876,-0.211772 0.203125,-0.353516 l 0.6875,-3.757813 0,-0.06055 c 0,-0.121496 -0.0401,-0.221738 -0.121094,-0.302735 -0.08775,-0.07425 -0.192958,-0.111328 -0.314453,-0.111328 l -1.396484,0 z m 72.234376,0 c -0.14175,0 -0.27499,0.04613 -0.39649,0.140625 -0.11474,0.08775 -0.18393,0.19899 -0.21093,0.333984 l -1.85352,10.296878 0,0.0508 c 0,0.11474 0.0401,0.21694 0.1211,0.30469 0.081,0.0877 0.18319,0.13086 0.30468,0.13086 l 0.93164,0 c 0.33074,0 0.53619,-0.16838 0.61719,-0.50586 l 1.85156,-10.277348 0,-0.06055 c 0,-0.121496 -0.0401,-0.221738 -0.12109,-0.302735 -0.081,-0.07425 -0.18124,-0.111328 -0.30274,-0.111328 l -0.9414,0 z m 38.83008,0 -0.88086,4.738281 1.42773,0 c 0.1485,0 0.27979,-0.04808 0.39453,-0.142578 0.11475,-0.08775 0.18288,-0.202005 0.20313,-0.34375 l 0.71875,-3.777344 0,-0.06055 c 0,-0.121496 -0.0421,-0.221738 -0.12305,-0.302735 -0.081,-0.07425 -0.17822,-0.111328 -0.29297,-0.111328 l -1.44726,0 z m 18.40234,0 c -0.14174,0 -0.27304,0.04613 -0.39453,0.140625 -0.11475,0.08775 -0.18589,0.19899 -0.21289,0.333984 l -1.85352,10.296878 0,0.0508 c 0,0.11474 0.0421,0.21694 0.12305,0.30469 0.081,0.0877 0.18124,0.13086 0.30273,0.13086 l 0.93164,0 c 0.33074,0 0.5362,-0.16838 0.61719,-0.50586 l 1.85352,-10.277348 0,-0.06055 c 0,-0.121496 -0.0401,-0.221738 -0.1211,-0.302735 -0.081,-0.07425 -0.18319,-0.111328 -0.30468,-0.111328 l -0.94141,0 z"
         style="fill:#fc0c18;fill-opacity:1"
         inkscape:connector-curvature="0" />
    </g>
  </g>
  <g
     inkscape:groupmode="layer"
     id="layer2"
     inkscape:label="Layer 2"
     transform="translate(-2.8637501,2.1379087)" />
</svg>
