<?xml version="1.0" encoding="UTF-8" standalone="no"?>
<svg
   xmlns:dc="http://purl.org/dc/elements/1.1/"
   xmlns:cc="http://creativecommons.org/ns#"
   xmlns:rdf="http://www.w3.org/1999/02/22-rdf-syntax-ns#"
   xmlns:svg="http://www.w3.org/2000/svg"
   xmlns="http://www.w3.org/2000/svg"
   xmlns:sodipodi="http://sodipodi.sourceforge.net/DTD/sodipodi-0.dtd"
   xmlns:inkscape="http://www.inkscape.org/namespaces/inkscape"
   width="144.55675mm"
   height="25.5mm"
   viewBox="0 0 512.20895 90.354331"
   id="svg2"
   version="1.1"
   inkscape:version="0.91 r13725"
   sodipodi:docname="controlled-components.svg">
  <defs
     id="defs4" />
  <sodipodi:namedview
     id="base"
     pagecolor="#ffffff"
     bordercolor="#666666"
     borderopacity="1.0"
     inkscape:pageopacity="0.0"
     inkscape:pageshadow="2"
     inkscape:zoom="2.8"
     inkscape:cx="265.27125"
     inkscape:cy="56.177129"
     inkscape:document-units="px"
     inkscape:current-layer="text4284"
     showgrid="false"
     inkscape:window-width="1680"
     inkscape:window-height="1001"
     inkscape:window-x="0"
     inkscape:window-y="1"
     inkscape:window-maximized="1"
     fit-margin-top="0"
     fit-margin-left="0"
     fit-margin-right="0"
     fit-margin-bottom="0">
    <inkscape:grid
       type="xygrid"
       id="grid3342"
       originx="-35.626846"
       originy="-930.44746" />
  </sodipodi:namedview>
  <metadata
     id="metadata7">
    <rdf:RDF>
      <cc:Work
         rdf:about="">
        <dc:format>image/svg+xml</dc:format>
        <dc:type
           rdf:resource="http://purl.org/dc/dcmitype/StillImage" />
        <dc:title></dc:title>
      </cc:Work>
    </rdf:RDF>
  </metadata>
  <g
     inkscape:label="Layer 1"
     inkscape:groupmode="layer"
     id="layer1"
     style="display:inline"
     transform="translate(-35.626844,-31.560408)">
    <g
       transform="matrix(1.0187708,0,0,0.98157506,-111.42857,-114.28571)"
       style="font-style:italic;font-variant:normal;font-weight:normal;font-stretch:normal;font-size:80px;line-height:125%;font-family:SNES;-inkscape-font-specification:'SNES, Italic';text-align:start;letter-spacing:0px;word-spacing:0px;writing-mode:lr-tb;text-anchor:start;fill:#fc0c18;fill-opacity:1;stroke:none;stroke-width:1px;stroke-linecap:butt;stroke-linejoin:miter;stroke-opacity:1"
       id="text3336">
      <path
         d="m 166.10187,158.30916 0,-0.23438 q 0,-0.70312 -0.46875,-1.17187 -0.46875,-0.42969 -1.17188,-0.42969 l -3.63281,0 q -0.82031,0 -1.52344,0.54688 -0.66406,0.50781 -0.82031,1.28906 l -7.14844,39.72656 0,0.19531 q 0,0.66407 0.46875,1.17188 0.46875,0.50781 1.17188,0.50781 l 3.59375,0 q 1.91406,0 2.38281,-1.95312 l 2.10938,-11.75782 6.52343,0 -2.65625,14.92188 q -0.42968,2.14844 -2.1875,3.59375 -1.75781,1.44531 -3.98437,1.44531 l -9.33594,0 q -2.07031,0 -3.51562,-1.48437 -1.44532,-1.48438 -1.44532,-3.55469 l 0,-0.97656 8.04688,-44.92188 q 0.42969,-2.1875 2.14844,-3.63281 1.75781,-1.44531 3.94531,-1.44531 l 9.49219,0 q 2.03125,0 3.47656,1.48437 1.48437,1.48438 1.48437,3.59375 0,0.58594 -0.0781,0.89844 l -2.5,13.98437 -6.48438,0 2.10938,-11.79687 z"
         id="path4177"
         inkscape:connector-curvature="0"
         style="fill:#fc0c18;fill-opacity:1" />
      <path
         d="m 176.49249,198.23103 q 0,0.66407 0.46875,1.17188 0.46875,0.50781 1.17188,0.50781 l 3.59375,0 q 1.91406,0 2.38281,-1.95312 l 7.14844,-39.64844 0,-0.23438 q 0,-0.70312 -0.46875,-1.17187 -0.46875,-0.42969 -1.17188,-0.42969 l -3.63281,0 q -0.82031,0 -1.52344,0.54688 -0.66406,0.50781 -0.82031,1.28906 l -7.14844,39.72656 0,0.19531 z m 16.75782,-48.08593 q 2.03125,0 3.47656,1.48437 1.48437,1.48438 1.48437,3.59375 0,0.58594 -0.0781,0.89844 l -8.04688,45 q -0.42968,2.14844 -2.1875,3.59375 -1.75781,1.44531 -3.98437,1.44531 l -9.33594,0 q -2.07031,0 -3.51562,-1.48437 -1.44532,-1.48438 -1.44532,-3.55469 l 0,-0.97656 8.04688,-44.92188 q 0.42969,-2.1875 2.14844,-3.63281 1.75781,-1.44531 3.94531,-1.44531 l 9.49219,0 z"
         id="path4179"
         inkscape:connector-curvature="0"
         style="fill:#fc0c18;fill-opacity:1" />
      <path
         d="m 194.77374,206.16072 10.15625,-56.01562 6.75782,0 q 2.92968,30.3125 3.04687,42.77343 0.39063,-11.01562 6.09375,-42.77343 l 6.75781,0 -10.15625,56.01562 -6.75781,0 q -2.89062,-30.19531 -3.00781,-41.75781 -0.39063,9.6875 -6.09375,41.75781 l -6.79688,0 z"
         id="path4181"
         inkscape:connector-curvature="0"
         style="fill:#fc0c18;fill-opacity:1" />
      <path
         d="m 246.10187,156.47322 -4.64844,0 -8.98437,49.6875 -6.83594,0 9.0625,-49.6875 -4.80469,0 1.13281,-6.32812 16.28907,0 -1.21094,6.32812 z"
         id="path4183"
         inkscape:connector-curvature="0"
         style="fill:#fc0c18;fill-opacity:1" />
      <path
         d="m 258.40656,174.75447 q 0.85937,0 1.52343,-0.58594 0.66407,-0.54687 0.78125,-1.36718 l 2.65625,-14.49219 0,-0.23438 q 0,-0.70312 -0.46875,-1.17187 -0.50781,-0.42969 -1.21093,-0.42969 l -5.39063,0 -3.32031,18.28125 5.42969,0 z m 0.39062,8.28125 q 0,-0.66406 -0.46875,-1.13281 -0.46875,-0.46875 -1.13281,-0.46875 l -5.42969,0 -4.375,24.72656 -6.83594,0 10.03907,-56.01562 15.03906,0 q 2.03125,0 3.51562,1.48437 1.48438,1.44531 1.5625,3.55469 0,0.19531 -0.15625,0.9375 l -3.125,17.65625 q -0.74218,3.67187 -4.33593,4.6875 1.36718,0.50781 2.07031,1.79687 0.54687,1.01563 0.54687,2.26563 0,0.27344 -0.0391,0.58594 0,0.58593 -0.0391,0.89843 l -4.0625,22.14844 -6.875,0 4.10156,-22.92969 0,-0.19531 z"
         id="path4185"
         inkscape:connector-curvature="0"
         style="fill:#fc0c18;fill-opacity:1" />
      <path
         d="m 273.21124,198.23103 q 0,0.66407 0.46875,1.17188 0.46875,0.50781 1.17188,0.50781 l 3.59375,0 q 1.91406,0 2.38281,-1.95312 l 7.14844,-39.64844 0,-0.23438 q 0,-0.70312 -0.46875,-1.17187 -0.46875,-0.42969 -1.17188,-0.42969 l -3.63281,0 q -0.82031,0 -1.52344,0.54688 -0.66406,0.50781 -0.82031,1.28906 l -7.14844,39.72656 0,0.19531 z m 16.75782,-48.08593 q 2.03125,0 3.47656,1.48437 1.48437,1.48438 1.48437,3.59375 0,0.58594 -0.0781,0.89844 l -8.04688,45 q -0.42968,2.14844 -2.1875,3.59375 -1.75781,1.44531 -3.98437,1.44531 l -9.33594,0 q -2.07031,0 -3.51562,-1.48437 -1.44532,-1.48438 -1.44532,-3.55469 l 0,-0.97656 8.04688,-44.92188 q 0.42969,-2.1875 2.14844,-3.63281 1.75781,-1.44531 3.94531,-1.44531 l 9.49219,0 z"
         id="path4187"
         inkscape:connector-curvature="0"
         style="fill:#fc0c18;fill-opacity:1" />
      <path
         d="m 299.53937,199.91072 8.28125,0 -1.13281,6.25 -15.19532,0 10.15625,-56.01562 6.79688,0 -8.90625,49.76562 z"
         id="path4189"
         inkscape:connector-curvature="0"
         style="fill:#fc0c18;fill-opacity:1" />
      <path
         d="m 319.38312,199.91072 8.28125,0 -1.13281,6.25 -15.19532,0 10.15625,-56.01562 6.79688,0 -8.90625,49.76562 z"
         id="path4191"
         inkscape:connector-curvature="0"
         style="fill:#fc0c18;fill-opacity:1" />
      <path
         d="m 341.33624,150.1451 15.19532,0 -1.09375,6.32812 -8.4375,0 -3.16407,17.69531 8.39844,0 -1.17187,6.25 -8.35938,0 -3.47656,19.49219 8.28125,0 -1.13281,6.25 -15.19532,0 10.15625,-56.01562 z"
         id="path4193"
         inkscape:connector-curvature="0"
         style="fill:#fc0c18;fill-opacity:1" />
      <path
         d="m 364.85187,199.91072 q 0.85937,0 1.52344,-0.54687 0.66406,-0.54688 0.78125,-1.40625 l 7.22656,-39.64844 q 0.0391,-0.11719 0.0391,-0.23438 0,-0.70312 -0.46875,-1.17187 -0.46875,-0.42969 -1.17187,-0.42969 l -6.05469,0 -7.92969,43.4375 6.05469,0 z m 11.52344,-49.76562 q 2.07031,0 3.55468,1.48437 1.48438,1.48438 1.48438,3.59375 0,0.23438 -0.15625,0.89844 l -8.08594,45 q -0.39062,2.14844 -2.10937,3.59375 -1.71875,1.44531 -3.94532,1.44531 l -16.09375,0 10.15625,-56.01562 15.19532,0 z"
         id="path4195"
         inkscape:connector-curvature="0"
         style="fill:#fc0c18;fill-opacity:1" />
      <path
         d="m 411.25812,158.30916 0,-0.23438 q 0,-0.70312 -0.46875,-1.17187 -0.46875,-0.42969 -1.17188,-0.42969 l -3.63281,0 q -0.82031,0 -1.52344,0.54688 -0.66406,0.50781 -0.82031,1.28906 l -7.14844,39.72656 0,0.19531 q 0,0.66407 0.46875,1.17188 0.46875,0.50781 1.17188,0.50781 l 3.59375,0 q 1.91406,0 2.38281,-1.95312 l 2.10938,-11.75782 6.52343,0 -2.65625,14.92188 q -0.42968,2.14844 -2.1875,3.59375 -1.75781,1.44531 -3.98437,1.44531 l -9.33594,0 q -2.07031,0 -3.51562,-1.48437 -1.44532,-1.48438 -1.44532,-3.55469 l 0,-0.97656 8.04688,-44.92188 q 0.42969,-2.1875 2.14844,-3.63281 1.75781,-1.44531 3.94531,-1.44531 l 9.49219,0 q 2.03125,0 3.47656,1.48437 1.48437,1.48438 1.48437,3.59375 0,0.58594 -0.0781,0.89844 l -2.5,13.98437 -6.48438,0 2.10938,-11.79687 z"
         id="path4197"
         inkscape:connector-curvature="0"
         style="fill:#fc0c18;fill-opacity:1" />
      <path
         d="m 421.64874,198.23103 q 0,0.66407 0.46875,1.17188 0.46875,0.50781 1.17188,0.50781 l 3.59375,0 q 1.91406,0 2.38281,-1.95312 l 7.14844,-39.64844 0,-0.23438 q 0,-0.70312 -0.46875,-1.17187 -0.46875,-0.42969 -1.17188,-0.42969 l -3.63281,0 q -0.82031,0 -1.52344,0.54688 -0.66406,0.50781 -0.82031,1.28906 l -7.14844,39.72656 0,0.19531 z m 16.75782,-48.08593 q 2.03125,0 3.47656,1.48437 1.48437,1.48438 1.48437,3.59375 0,0.58594 -0.0781,0.89844 l -8.04688,45 q -0.42968,2.14844 -2.1875,3.59375 -1.75781,1.44531 -3.98437,1.44531 l -9.33594,0 q -2.07031,0 -3.51562,-1.48437 -1.44532,-1.48438 -1.44532,-3.55469 l 0,-0.97656 8.04688,-44.92188 q 0.42969,-2.1875 2.14844,-3.63281 1.75781,-1.44531 3.94531,-1.44531 l 9.49219,0 z"
         id="path4199"
         inkscape:connector-curvature="0"
         style="fill:#fc0c18;fill-opacity:1" />
      <path
         d="m 452.97687,170.7701 -6.28906,35.39062 -6.75782,0 10.19532,-56.01562 8.47656,0 -0.85938,40.35156 13.51563,-40.35156 9.29687,0 -10.15625,56.01562 -6.75781,0 6.21094,-34.96094 -11.36719,34.96094 -5.9375,0 0.42969,-35.39062 z"
         id="path4201"
         inkscape:connector-curvature="0"
         style="fill:#fc0c18;fill-opacity:1" />
      <path
         d="m 492.93781,174.75447 q 0.85937,0 1.52343,-0.54687 0.66407,-0.50782 0.78125,-1.32813 l 2.77344,-14.57031 0,-0.23438 q 0,-0.70312 -0.46875,-1.17187 -0.46875,-0.42969 -1.13281,-0.42969 l -5.58594,0 -3.39844,18.28125 5.50782,0 z m -17.85157,31.40625 10.15625,-56.01562 14.72657,0 q 2.07031,0 3.51562,1.48437 1.48438,1.48438 1.48438,3.59375 0,0.27344 -0.11719,0.89844 l -3.59375,19.84375 q -0.39063,2.1875 -2.10938,3.63281 -1.71875,1.44531 -3.94531,1.44531 l -8.78906,0 -4.57031,25.11719 -6.75782,0 z"
         id="path4203"
         inkscape:connector-curvature="0"
         style="fill:#fc0c18;fill-opacity:1" />
      <path
         d="m 507.27374,198.23103 q 0,0.66407 0.46875,1.17188 0.46875,0.50781 1.17188,0.50781 l 3.59375,0 q 1.91406,0 2.38281,-1.95312 l 7.14844,-39.64844 0,-0.23438 q 0,-0.70312 -0.46875,-1.17187 -0.46875,-0.42969 -1.17188,-0.42969 l -3.63281,0 q -0.82031,0 -1.52344,0.54688 -0.66406,0.50781 -0.82031,1.28906 l -7.14844,39.72656 0,0.19531 z m 16.75782,-48.08593 q 2.03125,0 3.47656,1.48437 1.48437,1.48438 1.48437,3.59375 0,0.58594 -0.0781,0.89844 l -8.04688,45 q -0.42968,2.14844 -2.1875,3.59375 -1.75781,1.44531 -3.98437,1.44531 l -9.33594,0 q -2.07031,0 -3.51562,-1.48437 -1.44532,-1.48438 -1.44532,-3.55469 l 0,-0.97656 8.04688,-44.92188 q 0.42969,-2.1875 2.14844,-3.63281 1.75781,-1.44531 3.94531,-1.44531 l 9.49219,0 z"
         id="path4205"
         inkscape:connector-curvature="0"
         style="fill:#fc0c18;fill-opacity:1" />
      <path
         d="m 525.55499,206.16072 10.15625,-56.01562 6.75782,0 q 2.92968,30.3125 3.04687,42.77343 0.39063,-11.01562 6.09375,-42.77343 l 6.75781,0 -10.15625,56.01562 -6.75781,0 q -2.89062,-30.19531 -3.00781,-41.75781 -0.39063,9.6875 -6.09375,41.75781 l -6.79688,0 z"
         id="path4207"
         inkscape:connector-curvature="0"
         style="fill:#fc0c18;fill-opacity:1" />
      <path
         d="m 563.05499,150.1451 15.19532,0 -1.09375,6.32812 -8.4375,0 -3.16407,17.69531 8.39844,0 -1.17187,6.25 -8.35938,0 -3.47656,19.49219 8.28125,0 -1.13281,6.25 -15.19532,0 10.15625,-56.01562 z"
         id="path4209"
         inkscape:connector-curvature="0"
         style="fill:#fc0c18;fill-opacity:1" />
      <path
         d="m 572.74249,206.16072 10.15625,-56.01562 6.75782,0 q 2.92968,30.3125 3.04687,42.77343 0.39063,-11.01562 6.09375,-42.77343 l 6.75781,0 -10.15625,56.01562 -6.75781,0 q -2.89062,-30.19531 -3.00781,-41.75781 -0.39063,9.6875 -6.09375,41.75781 l -6.79688,0 z"
         id="path4211"
         inkscape:connector-curvature="0"
         style="fill:#fc0c18;fill-opacity:1" />
      <path
         d="m 624.07062,156.47322 -4.64844,0 -8.98437,49.6875 -6.83594,0 9.0625,-49.6875 -4.80469,0 1.13281,-6.32812 16.28907,0 -1.21094,6.32812 z"
         id="path4213"
         inkscape:connector-curvature="0"
         style="fill:#fc0c18;fill-opacity:1" />
      <path
         d="m 633.09406,171.66853 q 6.44531,11.05469 6.99218,12.34375 1.01563,1.875 1.01563,4.0625 0,1.09375 -0.23438,2.22657 l -1.99218,10.82031 q -0.46875,2.14844 -2.14844,3.59375 -1.75781,1.44531 -4.02344,1.44531 l -9.33594,0 q -2.07031,0 -3.47656,-1.48437 -1.36719,-1.44532 -1.36719,-3.55469 l 0,-0.89844 2.46094,-14.21875 6.48438,0 -2.10938,12.03125 0,0.19531 q 0,0.66407 0.46875,1.17188 0.46875,0.50781 1.13281,0.50781 l 3.59375,0 q 0.85938,0 1.5625,-0.54687 0.70313,-0.58594 0.89844,-1.40625 l 1.40625,-7.89063 q 0.0781,-0.35156 0.0781,-0.74219 0,-1.60156 -1.36719,-4.02343 -0.625,-1.13282 -3.35938,-6.25 -3.04687,-5.74219 -3.51562,-6.64063 -1.48438,-2.92969 -1.48438,-5.78125 0,-0.85937 0.11719,-1.71875 l 1.67969,-9.6875 q 0.42969,-2.1875 2.1875,-3.63281 1.71875,-1.44531 3.94531,-1.44531 l 9.375,0 q 2.03125,0 3.51563,1.48437 1.52343,1.48438 1.52343,3.59375 0,0.58594 -0.0781,0.89844 l -2.46094,13.78906 -6.5625,0 2.07031,-11.60156 q 0.0781,-0.11719 0.0781,-0.23438 0,-0.66406 -0.50781,-1.17187 -0.50782,-0.42969 -1.17188,-0.42969 l -3.59375,0 q -0.85937,0 -1.52344,0.54688 -0.66406,0.50781 -0.82031,1.28906 l -1.13281,6.21094 q -0.11719,0.70312 -0.11719,1.44531 0,2.8125 1.79688,5.70312 z"
         id="path4215"
         inkscape:connector-curvature="0"
         style="fill:#fc0c18;fill-opacity:1" />
    </g>
  </g>
  <g
     inkscape:groupmode="layer"
     id="layer2"
     inkscape:label="Layer 2"
     style="display:inline"
     transform="translate(-0.504293,1.5325686)">
    <g
       transform="translate(-35.122551,-33.092976)"
       style="font-style:italic;font-variant:normal;font-weight:normal;font-stretch:normal;font-size:27.01594734px;line-height:125%;font-family:SNES;-inkscape-font-specification:'SNES, Italic';text-align:start;letter-spacing:0px;word-spacing:0px;writing-mode:lr-tb;text-anchor:start;display:inline;fill:#000000;fill-opacity:1;stroke:none;stroke-width:1px;stroke-linecap:butt;stroke-linejoin:miter;stroke-opacity:1"
       id="text4284">
      <g
         style="font-style:italic;font-variant:normal;font-weight:normal;font-stretch:normal;font-size:40px;line-height:125%;font-family:SNES;-inkscape-font-specification:'SNES, Italic';text-align:start;letter-spacing:0px;word-spacing:0px;writing-mode:lr-tb;text-anchor:start;display:inline;fill:#000000;fill-opacity:1;stroke:none;stroke-width:1px;stroke-linecap:butt;stroke-linejoin:miter;stroke-opacity:1"
         id="text4288"
         transform="translate(35.122551,33.092976)" />
      <path
         style="fill:#fc0c18;fill-opacity:1"
         d="m 35.626844,94.772162 0,27.142568 503.572266,0 0,-27.142568 -503.572266,0 z m 7.6875,3.996091 5.078126,0 c 0.457301,0 0.853318,0.16777 1.1875,0.50196 0.334181,0.32538 0.509755,0.72432 0.527343,1.199207 0,0.044 -0.01756,0.14932 -0.05273,0.31641 l -1.054687,5.96289 c -0.167091,0.82666 -0.655773,1.35533 -1.464844,1.58398 0.307799,0.11433 0.540922,0.31526 0.699218,0.60547 0.12312,0.22865 0.185547,0.48421 0.185547,0.76563 0,0.0616 -0.0049,0.12691 -0.01367,0.19726 0,0.13192 -0.0049,0.23433 -0.01367,0.30469 l -1.371094,7.47851 -2.322266,0 1.384765,-7.74218 0,-0.0664 c 0,-0.1495 -0.05267,-0.27728 -0.158203,-0.38281 -0.105531,-0.10553 -0.23331,-0.15821 -0.382812,-0.15821 l -1.832031,0 -1.478516,8.34961 -2.308594,0 3.390625,-18.916007 z m 19.345704,0 5.130859,0 -0.369141,2.136717 -2.849609,0 -1.068359,5.97656 2.835937,0 -0.394531,2.10938 -2.824219,0 -1.173828,6.58203 2.796875,0 -0.382812,2.11132 -5.13086,0 3.429688,-18.916007 z m 20.375,0 2.269531,0 -1.478516,18.916007 -2.15039,0 0.304687,-3.11328 -2.585937,0 -1.06836,3.11328 -2.414062,0 7.123047,-18.916007 z m 17.472652,0 3.20508,0 c 0.4573,0 0.84844,0.16777 1.17383,0.50196 0.33418,0.33418 0.50195,0.737997 0.50195,1.212887 0,0.13191 -0.01,0.23238 -0.0273,0.30273 l -0.84375,4.72265 -2.18945,0 0.71289,-3.98437 0,-0.0781 c 0,-0.1583 -0.0527,-0.29096 -0.15821,-0.39649 -0.10553,-0.0967 -0.23818,-0.14453 -0.39648,-0.14453 l -1.22656,0 c -0.18468,0 -0.35538,0.0624 -0.51368,0.18555 -0.1495,0.11432 -0.24216,0.25771 -0.27734,0.43359 l -2.414061,13.41601 0,0.0664 c 0,0.1495 0.05267,0.28216 0.158203,0.39648 0.105531,0.11433 0.236235,0.16993 0.394531,0.16993 l 1.214844,0 c 0.430923,0 0.699153,-0.21849 0.804683,-0.65821 l 0.71289,-3.9707 2.20118,0 -0.89649,5.03906 c -0.0967,0.48369 -0.34254,0.88751 -0.73828,1.21289 -0.39574,0.32539 -0.84443,0.48828 -1.3457,0.48828 l -3.152345,0 c -0.466096,0 -0.862113,-0.16777 -1.1875,-0.50195 -0.325388,-0.33418 -0.488282,-0.73312 -0.488282,-1.19922 l 0,-0.33008 2.716797,-15.16991 c 0.09674,-0.492477 0.339616,-0.901177 0.726563,-1.226567 0.395741,-0.32538 0.839557,-0.48828 1.332027,-0.48828 z m 17.32813,0 5.5,0 -0.4082,2.136717 -1.57032,0 -3.0332,16.77929 -2.30859,0 3.06054,-16.77929 -1.62304,0 0.38281,-2.136717 z m 31.80468,0 5.13281,0 -0.36914,2.136717 -2.8496,0 -1.06836,5.97656 2.83593,0 -0.39648,2.10938 -2.82227,0 -1.55664,8.69335 -2.33594,0 3.42969,-18.916007 z m 18.64649,0 3.20703,0 c 0.4573,0 0.84844,0.16777 1.17383,0.50196 0.33418,0.33418 0.5,0.737997 0.5,1.212887 0,0.13191 -0.008,0.23238 -0.0254,0.30273 l -2.7168,15.19726 c -0.0967,0.48369 -0.34449,0.88751 -0.74024,1.21289 -0.39574,0.32539 -0.84443,0.48828 -1.3457,0.48828 l -3.15234,0 c -0.4661,0 -0.86212,-0.16777 -1.1875,-0.50195 -0.32539,-0.33418 -0.48633,-0.73312 -0.48633,-1.19922 l 0,-0.33008 2.7168,-15.16991 c 0.0967,-0.492477 0.33766,-0.901177 0.72461,-1.226567 0.39574,-0.32538 0.83955,-0.48828 1.33203,-0.48828 z m 17.71093,0 5.07813,0 c 0.4573,0 0.85332,0.16777 1.1875,0.50196 0.33418,0.32538 0.50975,0.72432 0.52734,1.199207 0,0.044 -0.0175,0.14932 -0.0527,0.31641 l -1.05469,5.96289 c -0.16709,0.82666 -0.65577,1.35533 -1.46484,1.58398 0.3078,0.11433 0.54092,0.31526 0.69922,0.60547 0.12312,0.22865 0.18554,0.48421 0.18554,0.76563 0,0.0616 -0.005,0.12691 -0.0137,0.19726 0,0.13192 -0.005,0.23433 -0.0137,0.30469 l -1.37109,7.47851 -2.32227,0 1.38477,-7.74218 0,-0.0664 c 0,-0.1495 -0.0527,-0.27728 -0.15821,-0.38281 -0.10553,-0.10553 -0.23331,-0.15821 -0.38281,-0.15821 l -1.83203,0 -1.47852,8.34961 -2.30859,0 3.39062,-18.916007 z m 19.35938,0 2.86328,0 -0.29101,13.626947 4.56445,-13.626947 3.13867,0 -3.42969,18.916007 -2.28125,0 2.09766,-11.80664 -3.83984,11.80664 -2.00391,0 0.14453,-11.95117 -2.12305,11.95117 -2.2832,0 3.44336,-18.916007 z m 38.36133,0 3.20508,0 c 0.4573,0 0.85039,0.16777 1.17578,0.50196 0.33418,0.33418 0.5,0.737997 0.5,1.212887 0,0.13191 -0.008,0.23238 -0.0254,0.30273 l -0.84571,4.72265 -2.18945,0 0.71289,-3.98437 0,-0.0781 c 0,-0.1583 -0.0527,-0.29096 -0.1582,-0.39649 -0.10553,-0.0967 -0.23819,-0.14453 -0.39649,-0.14453 l -1.22656,0 c -0.18468,0 -0.35537,0.0624 -0.51367,0.18555 -0.1495,0.11432 -0.24217,0.25771 -0.27734,0.43359 l -2.41407,13.41601 0,0.0664 c 0,0.1495 0.0527,0.28216 0.15821,0.39648 0.10553,0.11433 0.23818,0.16993 0.39648,0.16993 l 1.21289,0 c 0.43092,0 0.69916,-0.21849 0.80469,-0.65821 l 0.71289,-3.9707 2.20312,0 -0.89843,5.03906 c -0.0967,0.48369 -0.34254,0.88751 -0.73828,1.21289 -0.39575,0.32539 -0.84444,0.48828 -1.34571,0.48828 l -3.15234,0 c -0.4661,0 -0.86211,-0.16777 -1.1875,-0.50195 -0.32539,-0.33418 -0.48828,-0.73312 -0.48828,-1.19922 l 0,-0.33008 2.71875,-15.16991 c 0.0967,-0.492477 0.33766,-0.901177 0.72461,-1.226567 0.39574,-0.32538 0.83955,-0.48828 1.33203,-0.48828 z m 19.0957,0 3.20508,0 c 0.4573,0 0.84844,0.16777 1.17383,0.50196 0.33418,0.33418 0.50195,0.737997 0.50195,1.212887 0,0.13191 -0.01,0.23238 -0.0273,0.30273 l -2.7168,15.19726 c -0.0967,0.48369 -0.34254,0.88751 -0.73828,1.21289 -0.39574,0.32539 -0.84443,0.48828 -1.3457,0.48828 l -3.15235,0 c -0.46609,0 -0.86211,-0.16777 -1.1875,-0.50195 -0.32539,-0.33418 -0.48828,-0.73312 -0.48828,-1.19922 l 0,-0.33008 2.7168,-15.16991 c 0.0967,-0.492477 0.33961,-0.901177 0.72656,-1.226567 0.39574,-0.32538 0.83955,-0.48828 1.33203,-0.48828 z m 17.76367,0 2.86133,0 -0.28906,13.626947 4.56445,-13.626947 3.13867,0 -3.42968,18.916007 -2.28125,0 2.0957,-11.80664 -3.83789,11.80664 -2.00586,0 0.14648,-11.95117 -2.125,11.95117 -2.28125,0 3.44336,-18.916007 z m 22.45899,0 4.97265,0 c 0.4661,0 0.86212,0.16777 1.1875,0.50196 0.33418,0.33418 0.5,0.737997 0.5,1.212887 0,0.0616 -0.0127,0.16202 -0.0391,0.30273 l -1.21289,6.70117 c -0.0879,0.49248 -0.32594,0.90117 -0.71289,1.22656 -0.38695,0.32539 -0.83076,0.48828 -1.33203,0.48828 l -2.96875,0 -1.54297,8.48242 -2.28125,0 3.42969,-18.916007 z m 20.49218,0 3.20704,0 c 0.4573,0 0.84844,0.16777 1.17382,0.50196 0.33419,0.33418 0.5,0.737997 0.5,1.212887 0,0.13191 -0.008,0.23238 -0.0254,0.30273 l -2.71679,15.19726 c -0.0967,0.48369 -0.3445,0.88751 -0.74024,1.21289 -0.39574,0.32539 -0.84443,0.48828 -1.3457,0.48828 l -3.15234,0 c -0.4661,0 -0.86212,-0.16777 -1.1875,-0.50195 -0.32539,-0.33418 -0.48829,-0.73312 -0.48829,-1.19922 l 0,-0.33008 2.71875,-15.16991 c 0.0967,-0.492477 0.33767,-0.901177 0.72461,-1.226567 0.39574,-0.32538 0.83956,-0.48828 1.33203,-0.48828 z m 17.75,0 2.28321,0 c 0.65957,6.824337 1.00096,11.639937 1.02734,14.445307 0.0879,-2.47998 0.77463,-7.29558 2.05859,-14.445307 l 2.28321,0 -3.43164,18.916007 -2.28125,0 c -0.65078,-6.79795 -0.98924,-11.49846 -1.01563,-14.10156 -0.0879,2.18098 -0.77463,6.88148 -2.05859,14.10156 l -2.29492,0 3.42968,-18.916007 z m 19.83399,0 5.13281,0 -0.37109,2.136717 -2.84766,0 -1.07031,5.97656 2.83789,0 -0.39649,2.10938 -2.82226,0 -1.17383,6.58203 2.79492,0 -0.38281,2.11132 -5.13086,0 3.42969,-18.916007 z m 17.30078,0 2.2832,0 c 0.65957,6.824337 1.00292,11.639937 1.0293,14.445307 0.0879,-2.47998 0.77268,-7.29558 2.05664,-14.445307 l 2.2832,0 -3.42968,18.916007 -2.28321,0 c -0.65077,-6.79795 -0.98924,-11.49846 -1.01562,-14.10156 -0.0879,2.18098 -0.77268,6.88148 -2.05664,14.10156 l -2.29688,0 3.42969,-18.916007 z m 19.41211,0 5.50195,0 -0.41015,2.136717 -1.56836,0 -3.03516,16.77929 -2.30859,0 3.06054,-16.77929 -1.62304,0 0.38281,-2.136717 z m 33.16602,0 3.16601,0 c 0.4573,0 0.85137,0.16777 1.18555,0.50196 0.34297,0.33418 0.51562,0.737997 0.51562,1.212887 0,0.13191 -0.01,0.23238 -0.0273,0.30273 l -0.83008,4.65625 -2.2168,0 0.69922,-3.91797 c 0.0176,-0.0264 0.0274,-0.0517 0.0274,-0.0781 0,-0.14951 -0.0575,-0.28216 -0.17188,-0.39649 -0.11432,-0.0967 -0.24698,-0.14453 -0.39648,-0.14453 l -1.21289,0 c -0.19348,0 -0.36613,0.0624 -0.51563,0.18555 -0.1495,0.11432 -0.24021,0.25771 -0.27539,0.43359 l -0.38281,2.09765 c -0.0264,0.1583 -0.041,0.32119 -0.041,0.48829 0,0.63318 0.20289,1.275 0.60742,1.92578 1.45106,2.48877 2.23821,3.87971 2.36133,4.16992 0.22865,0.42212 0.34375,0.87861 0.34375,1.37109 0,0.24624 -0.0273,0.49692 -0.0801,0.75196 l -0.67187,3.65429 c -0.10553,0.48369 -0.34841,0.88751 -0.72656,1.21289 -0.39574,0.32539 -0.84736,0.48828 -1.35742,0.48828 l -3.1543,0 c -0.4661,0 -0.85724,-0.16777 -1.17383,-0.50195 -0.3078,-0.32539 -0.46094,-0.72433 -0.46094,-1.19922 l 0,-0.30273 0.83008,-4.80274 2.19141,0 -0.71289,4.0625 0,0.0664 c 0,0.1495 0.0527,0.28216 0.1582,0.39648 0.10553,0.11433 0.23331,0.16993 0.38281,0.16993 l 1.21289,0 c 0.19348,0 0.36905,-0.0605 0.52735,-0.1836 0.15829,-0.13191 0.26071,-0.28993 0.30468,-0.47461 l 0.47461,-2.66601 c 0.0176,-0.0791 0.0254,-0.16206 0.0254,-0.25 0,-0.36057 -0.15313,-0.81218 -0.46093,-1.35742 -0.14071,-0.25504 -0.51917,-0.95929 -1.13477,-2.11133 -0.68595,-1.29276 -1.08197,-2.03992 -1.1875,-2.24219 -0.33418,-0.65957 -0.5,-1.31114 -0.5,-1.95313 0,-0.19347 0.0127,-0.3866 0.0391,-0.58007 l 0.56641,-3.27148 c 0.0967,-0.492477 0.34254,-0.901177 0.73828,-1.226567 0.38695,-0.32538 0.83271,-0.48828 1.33399,-0.48828 z m 17.36718,0 2.26758,0 -0.0254,8.402337 3.39063,-8.402337 2.40039,0 -5.21094,11.568357 -1.33203,7.34765 -2.28321,0 1.33203,-7.30859 -0.53906,-11.607417 z m 20.875,0 3.16602,0 c 0.4573,0 0.85332,0.16777 1.1875,0.50196 0.34297,0.33418 0.51367,0.737997 0.51367,1.212887 0,0.13191 -0.008,0.23238 -0.0254,0.30273 l -0.83203,4.65625 -2.21485,0 0.69922,-3.91797 c 0.0176,-0.0264 0.0254,-0.0517 0.0254,-0.0781 0,-0.14951 -0.0575,-0.28216 -0.17187,-0.39649 -0.11433,-0.0967 -0.24503,-0.14453 -0.39453,-0.14453 l -1.21485,0 c -0.19347,0 -0.36417,0.0624 -0.51367,0.18555 -0.1495,0.11432 -0.24216,0.25771 -0.27734,0.43359 l -0.38281,2.09765 c -0.0264,0.1583 -0.0391,0.32119 -0.0391,0.48829 0,0.63318 0.20289,1.275 0.60743,1.92578 1.45105,2.48877 2.2382,3.87971 2.36132,4.16992 0.22865,0.42212 0.3418,0.87861 0.3418,1.37109 0,0.24624 -0.0254,0.49692 -0.0781,0.75196 l -0.67383,3.65429 c -0.10553,0.48369 -0.34646,0.88751 -0.72461,1.21289 -0.39574,0.32539 -0.84931,0.48828 -1.35938,0.48828 l -3.15234,0 c -0.4661,0 -0.85724,-0.16777 -1.17383,-0.50195 -0.3078,-0.32539 -0.46289,-0.72433 -0.46289,-1.19922 l 0,-0.30273 0.83203,-4.80274 2.18945,0 -0.71289,4.0625 0,0.0664 c 0,0.1495 0.0527,0.28216 0.15821,0.39648 0.10553,0.11433 0.23331,0.16993 0.38281,0.16993 l 1.21484,0 c 0.19348,0 0.36905,-0.0605 0.52735,-0.1836 0.15829,-0.13191 0.25876,-0.28993 0.30273,-0.47461 l 0.47461,-2.66601 c 0.0176,-0.0791 0.0273,-0.16206 0.0273,-0.25 0,-0.36057 -0.15509,-0.81218 -0.46289,-1.35742 -0.1407,-0.25504 -0.51721,-0.95929 -1.13281,-2.11133 -0.68595,-1.29276 -1.08197,-2.03992 -1.1875,-2.24219 -0.33418,-0.65957 -0.50195,-1.31114 -0.50195,-1.95313 0,-0.19347 0.0127,-0.3866 0.0391,-0.58007 l 0.56836,-3.27148 c 0.0967,-0.492477 0.34254,-0.901177 0.73828,-1.226567 0.38695,-0.32538 0.83076,-0.48828 1.33203,-0.48828 z m 17.26172,0 5.50195,0 -0.41015,2.136717 -1.57031,0 -3.03321,16.77929 -2.30859,0 3.06055,-16.77929 -1.62305,0 0.38281,-2.136717 z m 17.24805,0 5.13281,0 -0.37109,2.136717 -2.84766,0 -1.06836,5.97656 2.83594,0 -0.39649,2.10938 -2.82226,0 -1.17383,6.58203 2.79492,0 -0.38086,2.11132 -5.13281,0 3.42969,-18.916007 z m 17.31445,0 2.86328,0 -0.29101,13.626947 4.56445,-13.626947 3.14062,0 -3.42968,18.916007 -2.28321,0 2.09766,-11.80664 -3.83789,11.80664 -2.00586,0 0.14453,-11.95117 -2.12305,11.95117 -2.2832,0 3.44336,-18.916007 z m -475.818355,2.136717 -1.121093,6.17383 1.833984,0 c 0.193474,0 0.36417,-0.0654 0.513672,-0.19727 0.149503,-0.12312 0.237289,-0.27821 0.263672,-0.46289 l 0.898438,-4.89453 0,-0.0781 c 0,-0.1583 -0.05463,-0.29096 -0.160156,-0.39649 -0.114326,-0.0967 -0.249907,-0.14453 -0.408204,-0.14453 l -1.820313,0 z m 123.798825,0 c -0.18468,0 -0.35538,0.0624 -0.51367,0.18555 -0.1495,0.11432 -0.24217,0.25771 -0.27735,0.43359 l -2.41406,13.41601 0,0.0664 c 0,0.1495 0.0527,0.28216 0.15821,0.39648 0.10553,0.11433 0.23818,0.16993 0.39648,0.16993 l 1.21289,0 c 0.43092,0 0.69916,-0.21849 0.80469,-0.65821 l 2.41406,-13.39062 0,-0.0781 c 0,-0.1583 -0.0527,-0.29096 -0.1582,-0.39649 -0.10553,-0.0967 -0.23624,-0.14453 -0.39453,-0.14453 l -1.22852,0 z m 18.88477,0 -1.1211,6.17383 1.83399,0 c 0.19347,0 0.36417,-0.0654 0.51367,-0.19727 0.1495,-0.12312 0.23729,-0.27821 0.26367,-0.46289 l 0.89844,-4.89453 0,-0.0781 c 0,-0.1583 -0.0527,-0.29096 -0.15821,-0.39649 -0.11432,-0.0967 -0.25186,-0.14453 -0.41015,-0.14453 l -1.82031,0 z m 75.64257,0 c -0.18468,0 -0.35537,0.0624 -0.51367,0.18555 -0.1495,0.11432 -0.24216,0.25771 -0.27734,0.43359 l -2.41406,13.41601 0,0.0664 c 0,0.1495 0.0527,0.28216 0.1582,0.39648 0.10553,0.11433 0.23623,0.16993 0.39453,0.16993 l 1.21484,0 c 0.43092,0 0.69916,-0.21849 0.80469,-0.65821 l 2.41406,-13.39062 0,-0.0781 c 0,-0.1583 -0.0527,-0.29096 -0.1582,-0.39649 -0.10553,-0.0967 -0.23819,-0.14453 -0.39648,-0.14453 l -1.22657,0 z m 41.35547,0 -1.14648,6.17383 1.85937,0 c 0.19348,0 0.36613,-0.0624 0.51563,-0.18555 0.1495,-0.11433 0.23729,-0.26259 0.26367,-0.44727 l 0.93555,-4.92187 0,-0.0781 c 0,-0.1583 -0.0527,-0.29096 -0.15821,-0.39649 -0.10553,-0.0967 -0.23331,-0.14453 -0.38281,-0.14453 l -1.88672,0 z m 19.35938,0 c -0.18468,0 -0.35538,0.0624 -0.51367,0.18555 -0.14951,0.11432 -0.24217,0.25771 -0.27735,0.43359 l -2.41406,13.41601 0,0.0664 c 0,0.1495 0.0527,0.28216 0.1582,0.39648 0.10553,0.11433 0.23819,0.16993 0.39649,0.16993 l 1.21289,0 c 0.43092,0 0.69915,-0.21849 0.80468,-0.65821 l 2.41407,-13.39062 0,-0.0781 c 0,-0.1583 -0.0527,-0.29096 -0.15821,-0.39649 -0.10553,-0.0967 -0.23818,-0.14453 -0.39648,-0.14453 l -1.22656,0 z m -241.259764,3.15234 -2.888672,8.37695 2.058594,0 0.830078,-8.37695 z"
         id="rect4507"
         inkscape:connector-curvature="0" />
    </g>
  </g>
</svg>
